<?xml version="1.0" encoding="UTF-8" standalone="no"?>
<!-- Created with Inkscape (http://www.inkscape.org/) -->

<svg
   width="1200"
   height="360"
   viewBox="58 100 138 52"
   version="1.1"
   id="svg1"
   inkscape:version="1.4 (86a8ad7, 2024-10-11)"
   sodipodi:docname="PropArt-May.svg"
   xml:space="preserve"
   xmlns:inkscape="http://www.inkscape.org/namespaces/inkscape"
   xmlns:sodipodi="http://sodipodi.sourceforge.net/DTD/sodipodi-0.dtd"
   xmlns:xlink="http://www.w3.org/1999/xlink"
   xmlns="http://www.w3.org/2000/svg"
   xmlns:svg="http://www.w3.org/2000/svg"><sodipodi:namedview
     id="namedview1"
     pagecolor="#ffffff"
     bordercolor="#000000"
     borderopacity="0.25"
     inkscape:showpageshadow="2"
     inkscape:pageopacity="0.0"
     inkscape:pagecheckerboard="0"
     inkscape:deskcolor="#d1d1d1"
     inkscape:document-units="mm"
     inkscape:zoom="1.5233586"
     inkscape:cx="497.91297"
     inkscape:cy="569.4654"
     inkscape:window-width="1920"
     inkscape:window-height="1057"
     inkscape:window-x="-8"
     inkscape:window-y="-8"
     inkscape:window-maximized="1"
     inkscape:current-layer="layer1" /><defs
     id="defs1"><rect
       x="107.65686"
       y="720.7758"
       width="342.6639"
       height="145.07418"
       id="rect60" /><linearGradient
       id="linearGradient28"
       inkscape:collect="always"><stop
         style="stop-color:#5d50c6;stop-opacity:1;"
         offset="0"
         id="stop27" /><stop
         style="stop-color:#8359b1;stop-opacity:1;"
         offset="0.375"
         id="stop33" /><stop
         style="stop-color:#895bad;stop-opacity:1;"
         offset="0.4375"
         id="stop35" /><stop
         style="stop-color:#8c5cab;stop-opacity:1;"
         offset="0.46875"
         id="stop36" /><stop
         style="stop-color:#8e5caa;stop-opacity:1;"
         offset="0.484375"
         id="stop37" /><stop
         style="stop-color:#8f5caa;stop-opacity:1;"
         offset="0.4921875"
         id="stop38" /><stop
         style="stop-color:#8f5caa;stop-opacity:1;"
         offset="0.49609375"
         id="stop39" /><stop
         style="stop-color:#905daa;stop-opacity:1;"
         offset="0.5"
         id="stop29" /><stop
         style="stop-color:#9c60a3;stop-opacity:1;"
         offset="0.625"
         id="stop31" /><stop
         style="stop-color:#a9639c;stop-opacity:1;"
         offset="0.75"
         id="stop30" /><stop
         style="stop-color:#c36a8e;stop-opacity:1;"
         offset="1"
         id="stop28" /></linearGradient><linearGradient
       id="linearGradient25"
       inkscape:collect="always"><stop
         style="stop-color:#5d50c6;stop-opacity:1;"
         offset="0"
         id="stop25" /><stop
         style="stop-color:#5185ba;stop-opacity:1;"
         offset="0.57847512"
         id="stop40" /><stop
         style="stop-color:#bf6991;stop-opacity:1;"
         offset="1"
         id="stop41" /></linearGradient><linearGradient
       inkscape:collect="always"
       xlink:href="#linearGradient3"
       id="linearGradient4"
       x1="56.345562"
       y1="171.34706"
       x2="209.98364"
       y2="140.49326"
       gradientUnits="userSpaceOnUse"
       gradientTransform="matrix(0.53965453,0,0,0.85252651,64.168444,-2.8627869)" /><linearGradient
       id="linearGradient3"
       inkscape:collect="always"><stop
         style="stop-color:#5d50c6;stop-opacity:1;"
         offset="0"
         id="stop3" /><stop
         style="stop-color:#6b56ca;stop-opacity:1;"
         offset="0.40448853"
         id="stop5" /><stop
         style="stop-color:#c96b8a;stop-opacity:1;"
         offset="1"
         id="stop4" /></linearGradient><linearGradient
       inkscape:collect="always"
       xlink:href="#linearGradient5"
       id="linearGradient9"
       x1="56.345562"
       y1="171.34706"
       x2="209.98364"
       y2="140.49326"
       gradientUnits="userSpaceOnUse"
       gradientTransform="matrix(0.53965453,0,0,0.85252651,64.168444,-2.8627869)" /><linearGradient
       id="linearGradient5"
       inkscape:collect="always"><stop
         style="stop-color:#c96b8a;stop-opacity:1;"
         offset="0"
         id="stop6" /><stop
         style="stop-color:#3d3366;stop-opacity:1;"
         offset="1"
         id="stop9" /></linearGradient><linearGradient
       inkscape:collect="always"
       xlink:href="#linearGradient28"
       id="linearGradient2"
       x1="83.91967"
       y1="123.00044"
       x2="103.31971"
       y2="102.09061"
       gradientUnits="userSpaceOnUse" /><linearGradient
       id="linearGradient1"
       inkscape:collect="always"><stop
         style="stop-color:#5d50c6;stop-opacity:1;"
         offset="0"
         id="stop1" /><stop
         style="stop-color:#c36a8e;stop-opacity:1;"
         offset="1"
         id="stop2" /></linearGradient><linearGradient
       inkscape:collect="always"
       xlink:href="#linearGradient1"
       id="linearGradient6"
       gradientUnits="userSpaceOnUse"
       x1="83.91967"
       y1="123.00044"
       x2="103.31971"
       y2="102.09061" /><linearGradient
       inkscape:collect="always"
       xlink:href="#linearGradient1"
       id="linearGradient7"
       gradientUnits="userSpaceOnUse"
       x1="83.91967"
       y1="123.00044"
       x2="103.31971"
       y2="102.09061" /><linearGradient
       inkscape:collect="always"
       xlink:href="#linearGradient1"
       id="linearGradient8"
       gradientUnits="userSpaceOnUse"
       x1="83.91967"
       y1="123.00044"
       x2="103.31971"
       y2="102.09061" /><linearGradient
       inkscape:collect="always"
       xlink:href="#linearGradient1"
       id="linearGradient10"
       gradientUnits="userSpaceOnUse"
       x1="83.91967"
       y1="123.00044"
       x2="103.31971"
       y2="102.09061" /><linearGradient
       inkscape:collect="always"
       xlink:href="#linearGradient1"
       id="linearGradient11"
       gradientUnits="userSpaceOnUse"
       x1="83.91967"
       y1="123.00044"
       x2="103.31971"
       y2="102.09061" /><linearGradient
       inkscape:collect="always"
       xlink:href="#linearGradient1"
       id="linearGradient12"
       gradientUnits="userSpaceOnUse"
       x1="83.91967"
       y1="123.00044"
       x2="103.31971"
       y2="102.09061" /><linearGradient
       inkscape:collect="always"
       xlink:href="#linearGradient1"
       id="linearGradient13"
       gradientUnits="userSpaceOnUse"
       x1="83.91967"
       y1="123.00044"
       x2="103.31971"
       y2="102.09061" /><linearGradient
       inkscape:collect="always"
       xlink:href="#linearGradient1"
       id="linearGradient14"
       gradientUnits="userSpaceOnUse"
       x1="83.91967"
       y1="123.00044"
       x2="103.31971"
       y2="102.09061" /><linearGradient
       inkscape:collect="always"
       xlink:href="#linearGradient1"
       id="linearGradient15"
       gradientUnits="userSpaceOnUse"
       x1="83.91967"
       y1="123.00044"
       x2="103.31971"
       y2="102.09061" /><linearGradient
       inkscape:collect="always"
       xlink:href="#linearGradient1"
       id="linearGradient16"
       gradientUnits="userSpaceOnUse"
       x1="83.91967"
       y1="123.00044"
       x2="103.31971"
       y2="102.09061" /><linearGradient
       inkscape:collect="always"
       xlink:href="#linearGradient1"
       id="linearGradient17"
       gradientUnits="userSpaceOnUse"
       x1="83.91967"
       y1="123.00044"
       x2="103.31971"
       y2="102.09061" /><linearGradient
       inkscape:collect="always"
       xlink:href="#linearGradient1"
       id="linearGradient18"
       gradientUnits="userSpaceOnUse"
       x1="83.91967"
       y1="123.00044"
       x2="103.31971"
       y2="102.09061" /><linearGradient
       inkscape:collect="always"
       xlink:href="#linearGradient1"
       id="linearGradient19"
       gradientUnits="userSpaceOnUse"
       x1="83.91967"
       y1="123.00044"
       x2="103.31971"
       y2="102.09061" /><linearGradient
       inkscape:collect="always"
       xlink:href="#linearGradient1"
       id="linearGradient20"
       gradientUnits="userSpaceOnUse"
       x1="83.91967"
       y1="123.00044"
       x2="103.31971"
       y2="102.09061" /><linearGradient
       inkscape:collect="always"
       xlink:href="#linearGradient1"
       id="linearGradient21"
       gradientUnits="userSpaceOnUse"
       x1="83.91967"
       y1="123.00044"
       x2="103.31971"
       y2="102.09061" /><linearGradient
       inkscape:collect="always"
       xlink:href="#linearGradient1"
       id="linearGradient22"
       gradientUnits="userSpaceOnUse"
       x1="83.91967"
       y1="123.00044"
       x2="103.31971"
       y2="102.09061" /><linearGradient
       inkscape:collect="always"
       xlink:href="#linearGradient1"
       id="linearGradient23"
       gradientUnits="userSpaceOnUse"
       x1="83.91967"
       y1="123.00044"
       x2="103.31971"
       y2="102.09061" /><linearGradient
       inkscape:collect="always"
       xlink:href="#linearGradient1"
       id="linearGradient24"
       gradientUnits="userSpaceOnUse"
       x1="83.91967"
       y1="123.00044"
       x2="103.31971"
       y2="102.09061" /><linearGradient
       inkscape:collect="always"
       xlink:href="#linearGradient25"
       id="linearGradient26"
       x1="37.568096"
       y1="44.207642"
       x2="171.1123"
       y2="47.876011"
       gradientUnits="userSpaceOnUse" /></defs><g
     inkscape:label="Layer 1"
     inkscape:groupmode="layer"
     id="layer1"><text
       xml:space="preserve"
       style="font-style:normal;font-variant:normal;font-weight:bold;font-stretch:normal;font-size:3.52778px;font-family:Georgia;-inkscape-font-specification:'Georgia, Bold';font-variant-ligatures:normal;font-variant-caps:normal;font-variant-numeric:normal;font-variant-east-asian:normal;text-align:start;writing-mode:lr-tb;direction:ltr;text-anchor:start;fill:#c96b8a;fill-opacity:1;stroke-width:0.634416"
       x="186.13312"
       y="116.40663"
       id="text2"
       transform="scale(0.96510807,1.0361534)"><tspan
         sodipodi:role="line"
         id="tspan1"
         style="font-style:normal;font-variant:normal;font-weight:bold;font-stretch:normal;font-size:3.52778px;font-family:Georgia;-inkscape-font-specification:'Georgia, Bold';font-variant-ligatures:normal;font-variant-caps:normal;font-variant-numeric:normal;font-variant-east-asian:normal;fill:#c96b8a;fill-opacity:1;stroke-width:0.634416"
         x="186.13312"
         y="116.40663">™</tspan></text><text
       xml:space="preserve"
       style="font-style:normal;font-variant:normal;font-weight:normal;font-stretch:normal;font-size:5.52939px;font-family:Georgia;-inkscape-font-specification:'Georgia, Normal';font-variant-ligatures:normal;font-variant-caps:normal;font-variant-numeric:normal;font-variant-east-asian:normal;text-align:start;letter-spacing:0.311028px;writing-mode:lr-tb;direction:ltr;text-anchor:start;white-space:pre;inline-size:233.509;display:inline;fill:url(#linearGradient26);fill-opacity:1;stroke-width:0.658873"
       x="35.988609"
       y="48.49712"
       id="text4"
       transform="matrix(0.61784196,0,0,0.63372176,66.232221,118.37231)"><tspan
         x="35.988609"
         y="48.49712"
         id="tspan3">TOOLS FOR POLYMER CLAY ARTISTS | BY LATRESE</tspan></text><path
       d="m 106.98074,120.50038 q 0,1.87089 -0.49344,3.2273 -0.48359,1.34081 -1.3422,2.18273 -0.88822,0.87309 -2.03305,1.26285 -1.13494,0.38976 -2.5561,0.38976 h -1.144806 v 6.22077 q 0,0.56126 0.12829,0.98222 0.13815,0.40534 0.513186,0.65479 0.19737,0.12477 0.64149,0.26506 0.44412,0.14025 0.75004,0.18709 v 1.21608 h -7.589339 v -1.21608 q 0.286209,-0.0468 0.759927,-0.12462 0.473725,-0.0935 0.661232,-0.21828 0.384886,-0.24946 0.503325,-0.60803 0.128287,-0.35863 0.128287,-0.99784 v -15.60643 q 0,-0.54569 -0.118374,-0.93547 -0.118515,-0.40537 -0.513194,-0.67038 -0.276338,-0.1871 -0.740193,-0.32742 -0.453982,-0.1559 -0.680973,-0.20268 v -1.21608 h 7.727532 q 2.71399,0 4.05618,1.37198 1.34221,1.35641 1.34221,4.16278 z m -3.84894,0.79513 q 0,-2.49456 -0.6415,-3.69504 -0.6316,-1.21609 -2.26002,-1.21609 h -0.819136 v 9.71312 h 0.41451 q 1.618526,0 2.457396,-1.16932 0.84875,-1.18491 0.84875,-3.63267 z m 14.61616,3.18052 q 0,1.1849 -0.46386,2.08917 -0.46384,0.88868 -1.22376,0.88868 -0.72044,0 -1.22379,-0.57684 -0.49345,-0.57687 -0.49345,-1.69942 0,-0.54569 0.0495,-0.8419 0.0492,-0.31183 0.0887,-0.57686 -0.45395,0.0313 -0.9573,0.49891 -0.50332,0.46769 -0.88821,1.24725 v 8.55941 q 0,0.54567 0.1086,0.90426 0.1086,0.35858 0.36516,0.56127 0.21711,0.17151 0.70071,0.29622 0.49344,0.10929 0.71056,0.12462 v 1.13814 h -6.60242 v -1.13814 q 0.24673,-0.0313 0.49344,-0.078 0.25659,-0.0623 0.43426,-0.15589 0.31579,-0.17149 0.43423,-0.53009 0.11838,-0.35857 0.11838,-0.93547 v -9.07386 q 0,-0.56127 -0.16778,-0.9978 -0.16778,-0.45214 -0.40464,-0.71718 -0.17763,-0.18711 -0.45397,-0.31183 -0.26647,-0.12463 -0.59215,-0.17152 v -1.1381 l 4.70754,-0.40539 0.14805,0.23388 v 2.26065 h 0.0395 q 0.68098,-1.24724 1.4409,-1.94884 0.76979,-0.71717 1.59879,-0.71717 0.91783,0 1.4705,0.90426 0.56255,0.88868 0.56255,2.30747 z m 10.75731,-1.01338 q 0.73032,1.07574 1.11521,2.57247 0.3849,1.49671 0.3849,3.24291 0,1.73056 -0.3849,3.27408 -0.37502,1.5279 -1.10533,2.61924 -0.77967,1.16934 -1.86527,1.79295 -1.07573,0.62363 -2.46728,0.62363 -1.20402,0 -2.22054,-0.54567 -1.00665,-0.54567 -1.78632,-1.63705 -0.75005,-1.04457 -1.18428,-2.57246 -0.43426,-1.54349 -0.43426,-3.44558 0,-1.87092 0.37503,-3.32085 0.3849,-1.46555 1.14482,-2.60367 0.73032,-1.09138 1.79619,-1.68383 1.07573,-0.60804 2.39818,-0.60804 1.38169,0 2.4278,0.60804 1.056,0.59245 1.80605,1.68383 z m -2.52648,10.80446 q 0.21712,-0.8731 0.31581,-2.12035 0.10859,-1.24731 0.10859,-2.89994 0,-1.09134 -0.0987,-2.49452 -0.0987,-1.40316 -0.29607,-2.21391 -0.23685,-0.9822 -0.66124,-1.54348 -0.41449,-0.56126 -1.05598,-0.56126 -0.70071,0 -1.12508,0.60803 -0.41451,0.60806 -0.64149,1.57468 -0.20726,0.88866 -0.2862,2.08918 -0.0788,1.18489 -0.0788,2.47893 0,1.69941 0.0692,2.82196 0.0692,1.10694 0.33556,2.22948 0.22697,0.96663 0.65134,1.5279 0.42439,0.56131 1.07574,0.56131 0.59214,0 1.01651,-0.51452 0.42438,-0.5301 0.6711,-1.54349 z m 17.32026,-4.7708 q 0,3.28965 -1.39152,5.64386 -1.39155,2.35422 -3.52328,2.35422 -0.94743,0 -1.53957,-0.3118 -0.59216,-0.29624 -0.97704,-0.73278 h -0.0791 v 4.38104 q 0,0.54566 0.14804,0.95104 0.1579,0.40535 0.43423,0.59245 0.26647,0.1715 0.75005,0.31183 0.49346,0.14025 0.81914,0.17149 v 1.15373 h -7.1255 v -1.15373 q 0.24673,-0.0313 0.62176,-0.12462 0.37502,-0.0779 0.56254,-0.17149 0.31581,-0.17151 0.42436,-0.59244 0.11838,-0.40536 0.11838,-0.93546 v -15.94943 q -0.0296,-0.51452 -0.1579,-0.9043 -0.11837,-0.38975 -0.38491,-0.68596 -0.19737,-0.20269 -0.52305,-0.32745 -0.32567,-0.14025 -0.6415,-0.18706 v -1.13814 l 4.80626,-0.40536 0.14803,0.20269 v 1.73058 l 0.0791,0.0313 q 0.65137,-1.0446 1.44091,-1.62144 0.79939,-0.57687 1.57905,-0.57687 2.04291,0 3.2272,2.29185 1.18428,2.27627 1.18428,6.00248 z m -3.54299,0.0622 q 0,-1.16933 -0.1086,-2.2295 -0.10859,-1.07577 -0.38488,-1.91767 -0.26648,-0.84192 -0.71061,-1.34084 -0.43422,-0.49888 -1.06584,-0.49888 -0.64149,0 -1.0264,0.35857 -0.38489,0.34302 -0.6711,0.90426 v 8.84003 q 0.0591,0.31181 0.227,0.81072 0.16779,0.48331 0.33555,0.77953 0.24672,0.42098 0.56252,0.62364 0.31584,0.20269 0.69086,0.20269 0.97704,0 1.55931,-1.65263 0.59215,-1.66823 0.59215,-4.87992 z m 19.60365,7.53038 h -7.62881 v -1.21609 q 0.53294,-0.0622 1.25338,-0.29621 0.72044,-0.24948 0.72044,-0.60808 0,-0.12462 -0.0198,-0.28061 -0.01,-0.15589 -0.079,-0.42096 l -1.19416,-4.58371 h -4.83586 q -0.16777,0.63922 -0.37502,1.49671 -0.1974,0.85752 -0.34542,1.5279 -0.18752,0.87309 -0.22699,1.26288 -0.0296,0.38976 -0.0296,0.54566 0,0.49891 0.4737,0.85748 0.48358,0.34303 1.59879,0.49894 v 1.21609 h -5.74382 v -1.21609 q 0.32568,-0.0313 0.73033,-0.1559 0.41449,-0.14026 0.65134,-0.3742 0.40464,-0.37418 0.68098,-0.91986 0.28621,-0.54567 0.47371,-1.29405 1.14483,-4.38099 2.28965,-8.77762 1.15468,-4.39662 2.54622,-9.69751 h 1.97383 q 1.93435,7.51477 3.02983,11.88023 1.09546,4.36544 1.86524,7.23415 0.12828,0.46771 0.32569,0.85751 0.19739,0.37417 0.56255,0.71715 0.27632,0.24948 0.64148,0.3742 0.36518,0.12478 0.66123,0.1559 z m -7.35247,-8.94917 -2.03304,-8.0137 -2.00344,8.0137 z m 17.95169,-3.66381 q 0,1.1849 -0.46387,2.08918 -0.46384,0.88866 -1.22376,0.88866 -0.72044,0 -1.22376,-0.57684 -0.49347,-0.57687 -0.49347,-1.6994 0,-0.54568 0.0495,-0.84193 0.0495,-0.31183 0.0887,-0.57684 -0.45398,0.0313 -0.9573,0.4989 -0.50332,0.46772 -0.88822,1.24727 v 8.55938 q 0,0.54568 0.1086,0.90426 0.1086,0.35859 0.36515,0.56128 0.21713,0.17148 0.7007,0.29621 0.49348,0.1093 0.7106,0.12463 v 1.13814 h -6.60245 v -1.13814 q 0.24674,-0.0313 0.49347,-0.0782 0.25659,-0.0622 0.43424,-0.15588 0.31581,-0.17149 0.43424,-0.53009 0.11837,-0.35859 0.11837,-0.93547 v -9.07384 q 0,-0.5613 -0.16776,-0.99783 -0.16778,-0.45213 -0.40464,-0.71717 -0.17763,-0.18709 -0.45396,-0.31183 -0.26649,-0.12462 -0.59215,-0.17149 v -1.13813 l 4.70755,-0.40536 0.14804,0.23383 v 2.26068 h 0.0396 q 0.68096,-1.24726 1.44089,-1.94885 0.76979,-0.71718 1.5988,-0.71718 0.91784,0 1.47051,0.90427 0.56254,0.88868 0.56254,2.30745 z m 8.21103,11.89584 q -0.6316,0.43651 -1.35206,0.77954 -0.72045,0.35856 -1.75669,0.35856 -1.53958,0 -2.28965,-1.18488 -0.74017,-1.18492 -0.74017,-3.38322 v -9.5728 h -1.77645 v -1.68381 h 1.81592 v -4.72404 h 3.20747 v 4.72404 h 2.76333 v 1.68383 h -2.74359 v 8.54378 q 0,1.82412 0.31579,2.58806 0.32568,0.76395 1.15468,0.76395 0.26648,0 0.74018,-0.0622 0.47374,-0.0623 0.66124,-0.14026 z"
       id="text3"
       style="font-weight:bold;font-size:27.5176px;font-family:Georgia;-inkscape-font-specification:'Georgia, Bold';fill:url(#linearGradient4);stroke:url(#linearGradient9);stroke-width:0.0406971"
       aria-label="PropArt" /><g
       id="g612"
       transform="matrix(2.0679406,0,0,2.0790378,-113.22669,-110.81733)"
       style="fill:url(#linearGradient2);fill-opacity:1;stroke:#f1dce4;stroke-opacity:0.980392"><ellipse
         style="opacity:1;fill:url(#linearGradient6);fill-opacity:1;stroke:#f1dce4;stroke-width:0.299648;stroke-opacity:0.980392"
         id="path10-18"
         cx="-136.67542"
         cy="-53.343815"
         rx="3.263139"
         ry="7.590857"
         transform="matrix(-0.86269095,-0.50573148,0.46476445,-0.88543436,0,0)" /><ellipse
         style="opacity:1;fill:url(#linearGradient7);fill-opacity:1;stroke:#f1dce4;stroke-width:0.223254;stroke-opacity:0.980392"
         id="path10-1"
         cx="91.826805"
         cy="106.73859"
         rx="4.973"
         ry="4.9734936" /><circle
         style="opacity:1;fill:url(#linearGradient8);fill-opacity:1;stroke:#f1dce4;stroke-width:0.25;stroke-dasharray:none;stroke-opacity:0.980392"
         id="path10-68"
         cx="96.002449"
         cy="108.70361"
         r="3.0699999" /><ellipse
         style="opacity:1;fill:url(#linearGradient10);fill-opacity:1;stroke:#f1dce4;stroke-width:0.223254;stroke-opacity:0.980392"
         id="path10-6"
         cx="89.002098"
         cy="115.94958"
         rx="4.973"
         ry="4.9734936" /><ellipse
         style="opacity:1;fill:url(#linearGradient11);fill-opacity:1;stroke:#f1dce4;stroke-width:0.223254;stroke-opacity:0.980392"
         id="path10-5"
         cx="88.510849"
         cy="110.66862"
         rx="4.973"
         ry="4.9734936" /><ellipse
         style="opacity:1;fill:url(#linearGradient12);fill-opacity:1;stroke:#f1dce4;stroke-width:0.25;stroke-dasharray:none;stroke-opacity:0.980392"
         id="path10-3"
         cx="92.440865"
         cy="113.24769"
         rx="4.973"
         ry="4.9734936" /><ellipse
         style="opacity:1;fill:url(#linearGradient13);fill-opacity:1;stroke:#f1dce4;stroke-width:0.345245;stroke-dasharray:none;stroke-opacity:0.980392"
         id="path10-18-9"
         cx="-210.89288"
         cy="90.393326"
         rx="0.79670423"
         ry="2.9946334"
         transform="matrix(-0.40467287,-0.91446152,0.13492438,-0.9908559,0,0)" /><ellipse
         style="opacity:1;fill:url(#linearGradient14);fill-opacity:1;stroke:#f1dce4;stroke-width:0.307376;stroke-dasharray:none;stroke-opacity:0.980392"
         id="path10-18-9-1"
         cx="-197.41261"
         cy="88.862801"
         rx="0.72555631"
         ry="2.3657641"
         transform="matrix(-0.32746843,-0.94486212,0.37946075,-0.92520783,0,0)" /><ellipse
         style="opacity:1;fill:url(#linearGradient15);fill-opacity:1;stroke:#f1dce4;stroke-width:0.562858;stroke-opacity:0.980392"
         id="path10-4"
         cx="97.802193"
         cy="107.87939"
         rx="0.23723102"
         ry="0.26793432" /><use
         x="0"
         y="0"
         xlink:href="#path10-18"
         id="use187"
         style="opacity:1;fill:url(#linearGradient16);fill-opacity:1;stroke:#f1dce4;stroke-opacity:0.980392" /><use
         x="0"
         y="0"
         xlink:href="#path10-1"
         id="use188"
         style="opacity:1;fill:url(#linearGradient17);fill-opacity:1;stroke:#f1dce4;stroke-opacity:0.980392" /><use
         x="0"
         y="0"
         xlink:href="#path10-68"
         id="use189"
         style="opacity:1;fill:url(#linearGradient18);fill-opacity:1;stroke:#f1dce4;stroke-opacity:0.980392" /><use
         x="0"
         y="0"
         xlink:href="#path10-6"
         id="use190"
         style="opacity:1;fill:url(#linearGradient19);fill-opacity:1;stroke:#f1dce4;stroke-opacity:0.980392" /><use
         x="0"
         y="0"
         xlink:href="#path10-5"
         id="use191"
         style="opacity:1;fill:url(#linearGradient20);fill-opacity:1;stroke:#f1dce4;stroke-opacity:0.980392" /><use
         x="0"
         y="0"
         xlink:href="#path10-3"
         id="use192"
         style="opacity:1;fill:url(#linearGradient21);fill-opacity:1;stroke:#f1dce4;stroke-opacity:0.980392" /><use
         x="0"
         y="0"
         xlink:href="#path10-18-9"
         id="use193"
         style="opacity:1;fill:url(#linearGradient22);fill-opacity:1;stroke:#f1dce4;stroke-opacity:0.980392" /><use
         x="0"
         y="0"
         xlink:href="#path10-18-9-1"
         id="use194"
         style="opacity:1;fill:url(#linearGradient23);fill-opacity:1;stroke:#f1dce4;stroke-opacity:0.980392" /><use
         x="0"
         y="0"
         xlink:href="#path10-4"
         id="use195"
         style="opacity:1;fill:url(#linearGradient24);fill-opacity:1;stroke:#f1dce4;stroke-opacity:0.980392" /></g><text
       xml:space="preserve"
       transform="scale(0.26458333)"
       id="text60"
       style="fill:#000000;text-orientation:auto;-inkscape-font-specification:'Georgia, Bold';font-family:Georgia;font-weight:bold;font-size:13.33333333px;stroke:#000000;stroke-width:0.22677165;text-align:start;writing-mode:lr-tb;direction:ltr;fill-opacity:0;font-style:normal;font-stretch:normal;font-variant:normal;font-variant-ligatures:normal;font-variant-caps:normal;font-variant-numeric:normal;font-variant-east-asian:normal;white-space:pre;shape-inside:url(#rect60)" /></g></svg>
