<?xml version="1.0" encoding="UTF-8" standalone="no"?>
<!-- Created with Inkscape (http://www.inkscape.org/) -->

<svg
   width="1300"
   height="475"
   viewBox="0 0 233.42289 85.289132"
   version="1.1"
   id="svg1"
   inkscape:version="1.4 (86a8ad7, 2024-10-11)"
   sodipodi:docname="PropArtLogo-Final.svg"
   xml:space="preserve"
   xmlns:inkscape="http://www.inkscape.org/namespaces/inkscape"
   xmlns:sodipodi="http://sodipodi.sourceforge.net/DTD/sodipodi-0.dtd"
   xmlns:xlink="http://www.w3.org/1999/xlink"
   xmlns="http://www.w3.org/2000/svg"
   xmlns:svg="http://www.w3.org/2000/svg"><sodipodi:namedview
     id="namedview1"
     pagecolor="#ffffff"
     bordercolor="#000000"
     borderopacity="0.25"
     inkscape:showpageshadow="2"
     inkscape:pageopacity="0.0"
     inkscape:pagecheckerboard="0"
     inkscape:deskcolor="#d1d1d1"
     inkscape:document-units="px"
     inkscape:clip-to-page="false"
     inkscape:zoom="0.7616793"
     inkscape:cx="768.03977"
     inkscape:cy="340.69457"
     inkscape:window-width="1920"
     inkscape:window-height="1057"
     inkscape:window-x="-8"
     inkscape:window-y="-8"
     inkscape:window-maximized="1"
     inkscape:current-layer="layer1"
     showgrid="false" /><defs
     id="defs1"><rect
       x="625.59137"
       y="414.21632"
       width="760.81889"
       height="34.135098"
       id="rect11" /><rect
       x="367.6088"
       y="674.82471"
       width="283.58392"
       height="165.42395"
       id="rect3" /><linearGradient
       inkscape:collect="always"
       xlink:href="#linearGradient3"
       id="linearGradient4"
       x1="56.345562"
       y1="171.34706"
       x2="209.98364"
       y2="140.49326"
       gradientUnits="userSpaceOnUse"
       gradientTransform="matrix(0.73471428,0,0,0.7347143,3.2111728,-96.533895)" /><linearGradient
       id="linearGradient3"
       inkscape:collect="always"><stop
         style="stop-color:#5d50c6;stop-opacity:1;"
         offset="0"
         id="stop3" /><stop
         style="stop-color:#6b56ca;stop-opacity:1;"
         offset="0.35378402"
         id="stop5" /><stop
         style="stop-color:#c96b8a;stop-opacity:1;"
         offset="1"
         id="stop4" /></linearGradient><linearGradient
       inkscape:collect="always"
       xlink:href="#linearGradient5"
       id="linearGradient9"
       x1="56.345562"
       y1="171.34706"
       x2="209.98364"
       y2="140.49326"
       gradientUnits="userSpaceOnUse"
       gradientTransform="matrix(0.73471428,0,0,0.7347143,3.2111728,-96.533895)" /><linearGradient
       id="linearGradient5"
       inkscape:collect="always"><stop
         style="stop-color:#c96b8a;stop-opacity:1;"
         offset="0"
         id="stop6" /><stop
         style="stop-color:#3d3366;stop-opacity:1;"
         offset="1"
         id="stop9" /></linearGradient></defs><g
     inkscape:label="Layer 1"
     inkscape:groupmode="layer"
     id="layer1"
     transform="translate(23.06423,22.33203)"><text
       xml:space="preserve"
       style="font-style:normal;font-variant:normal;font-weight:bold;font-stretch:normal;font-size:11.9325px;font-family:Georgia;-inkscape-font-specification:'Georgia, Bold';font-variant-ligatures:normal;font-variant-caps:normal;font-variant-numeric:normal;font-variant-east-asian:normal;text-align:start;writing-mode:lr-tb;direction:ltr;text-anchor:start;fill:#c96b8a;fill-opacity:1;stroke-width:0.99437"
       x="139.2659"
       y="15.139596"
       id="text2"
       transform="scale(1.0114973,0.98863339)"><tspan
         sodipodi:role="line"
         id="tspan1"
         style="font-style:normal;font-variant:normal;font-weight:bold;font-stretch:normal;font-size:11.9325px;font-family:Georgia;-inkscape-font-specification:'Georgia, Bold';font-variant-ligatures:normal;font-variant-caps:normal;font-variant-numeric:normal;font-variant-east-asian:normal;fill:#c96b8a;fill-opacity:1;stroke-width:0.99437"
         x="139.2659"
         y="15.139596">™</tspan></text><g
       id="g612"
       transform="matrix(3.5816203,0,0,3.4259954,-318.56496,-363.50812)"><ellipse
         style="opacity:1;fill:#5d50c6;fill-opacity:1;stroke:#eafcf8;stroke-width:0.299648;stroke-opacity:1"
         id="path10-18"
         cx="-136.67542"
         cy="-53.343815"
         rx="3.263139"
         ry="7.590857"
         transform="matrix(-0.86269095,-0.50573148,0.46476445,-0.88543436,0,0)" /><ellipse
         style="opacity:1;fill:#5d50c6;fill-opacity:1;stroke:#eafcf8;stroke-width:0.223254;stroke-opacity:1"
         id="path10-1"
         cx="91.826805"
         cy="106.73859"
         rx="4.973"
         ry="4.9734936" /><circle
         style="opacity:1;fill:#5d50c6;fill-opacity:1;stroke:#eafcf8;stroke-width:0.25;stroke-dasharray:none;stroke-opacity:1"
         id="path10-68"
         cx="96.002449"
         cy="108.70361"
         r="3.0699999" /><ellipse
         style="opacity:1;fill:#5d50c6;fill-opacity:1;stroke:#eafcf8;stroke-width:0.223254;stroke-opacity:1"
         id="path10-6"
         cx="89.002098"
         cy="115.94958"
         rx="4.973"
         ry="4.9734936" /><ellipse
         style="opacity:1;fill:#5d50c6;fill-opacity:1;stroke:#eafcf8;stroke-width:0.223254;stroke-opacity:1"
         id="path10-5"
         cx="88.510849"
         cy="110.66862"
         rx="4.973"
         ry="4.9734936" /><ellipse
         style="opacity:1;fill:#5d50c6;fill-opacity:1;stroke:#eafcf8;stroke-width:0.25;stroke-dasharray:none;stroke-opacity:1"
         id="path10-3"
         cx="92.440865"
         cy="113.24769"
         rx="4.973"
         ry="4.9734936" /><ellipse
         style="opacity:1;fill:#5d50c6;fill-opacity:1;stroke:#eafcf8;stroke-width:0.345245;stroke-dasharray:none;stroke-opacity:1"
         id="path10-18-9"
         cx="-210.89288"
         cy="90.393326"
         rx="0.79670423"
         ry="2.9946334"
         transform="matrix(-0.40467287,-0.91446152,0.13492438,-0.9908559,0,0)" /><ellipse
         style="opacity:1;fill:#5d50c6;fill-opacity:1;stroke:#eafcf8;stroke-width:0.307376;stroke-dasharray:none;stroke-opacity:1"
         id="path10-18-9-1"
         cx="-197.41261"
         cy="88.862801"
         rx="0.72555631"
         ry="2.3657641"
         transform="matrix(-0.32746843,-0.94486212,0.37946075,-0.92520783,0,0)" /><ellipse
         style="opacity:1;fill:#5d50c6;fill-opacity:1;stroke:#eafcf8;stroke-width:0.562858;stroke-opacity:1"
         id="path10-4"
         cx="97.802193"
         cy="107.87939"
         rx="0.23723102"
         ry="0.26793432" /><use
         x="0"
         y="0"
         xlink:href="#path10-18"
         id="use187"
         style="opacity:1;fill:#5d50c6;fill-opacity:1;stroke:#eafcf8;stroke-opacity:1" /><use
         x="0"
         y="0"
         xlink:href="#path10-1"
         id="use188"
         style="opacity:1;fill:#5d50c6;fill-opacity:1;stroke:#eafcf8;stroke-opacity:1" /><use
         x="0"
         y="0"
         xlink:href="#path10-68"
         id="use189"
         style="opacity:1;fill:#5d50c6;fill-opacity:1;stroke:#eafcf8;stroke-opacity:1" /><use
         x="0"
         y="0"
         xlink:href="#path10-6"
         id="use190"
         style="opacity:1;fill:#5d50c6;fill-opacity:1;stroke:#eafcf8;stroke-opacity:1" /><use
         x="0"
         y="0"
         xlink:href="#path10-5"
         id="use191"
         style="opacity:1;fill:#5d50c6;fill-opacity:1;stroke:#eafcf8;stroke-opacity:1" /><use
         x="0"
         y="0"
         xlink:href="#path10-3"
         id="use192"
         style="opacity:1;fill:#5d50c6;fill-opacity:1;stroke:#eafcf8;stroke-opacity:1" /><use
         x="0"
         y="0"
         xlink:href="#path10-18-9"
         id="use193"
         style="opacity:1;fill:#5d50c6;fill-opacity:1;stroke:#eafcf8;stroke-opacity:1" /><use
         x="0"
         y="0"
         xlink:href="#path10-18-9-1"
         id="use194"
         style="opacity:1;fill:#5d50c6;fill-opacity:1;stroke:#eafcf8;stroke-opacity:1" /><use
         x="0"
         y="0"
         xlink:href="#path10-4"
         id="use195"
         style="opacity:1;fill:#5d50c6;fill-opacity:1;stroke:#eafcf8;stroke-opacity:1" /></g><text
       xml:space="preserve"
       style="font-weight:bold;font-size:7.90652px;font-family:Georgia;-inkscape-font-specification:'Georgia, Bold';text-align:start;writing-mode:lr-tb;direction:ltr;text-anchor:start;white-space:pre;inline-size:175.001;display:inline;fill:#5d50c6;fill-opacity:1;stroke-width:0.658873"
       x="35.988609"
       y="48.49712"
       id="text4"
       transform="scale(1.0551495,0.94773299)"><tspan
         x="35.988609"
         y="48.49712"
         id="tspan3">TOOLS FOR POLYMER CLAY ARTISTS</tspan></text><path
       d="m 61.498102,9.7814966 q 0,1.6123594 -0.671816,2.7813194 -0.65838,1.155525 -1.827341,1.881086 -1.209269,0.752435 -2.767883,1.088343 -1.545178,0.335908 -3.480009,0.335908 h -1.558614 v 5.361095 q 0,0.483708 0.174672,0.846488 0.188109,0.349345 0.698689,0.564326 0.268727,0.107491 0.873361,0.228418 0.604635,0.120927 1.021161,0.161236 v 1.048033 H 43.627786 v -1.048033 q 0.389654,-0.04031 1.034598,-0.107491 0.644943,-0.08062 0.900234,-0.188109 0.524016,-0.214981 0.685252,-0.524016 0.174673,-0.309036 0.174673,-0.859925 V 7.9004107 q 0,-0.4702715 -0.161236,-0.8061796 Q 46.100071,6.7448865 45.562618,6.516469 45.1864,6.355233 44.554893,6.2343061 43.936822,6.0999428 43.627786,6.0596338 V 5.0116003 h 10.520645 q 3.69499,0 5.522331,1.1823968 1.82734,1.1689605 1.82734,3.5874995 z m -5.240168,0.6852524 q 0,-2.1498121 -0.873361,-3.1844094 -0.859925,-1.0480335 -3.076919,-1.0480335 h -1.115215 v 8.3708319 h 0.564326 q 2.203557,0 3.345645,-1.007724 1.155524,-1.021161 1.155524,-3.130665 z m 19.899202,2.741011 q 0,1.021161 -0.631507,1.800468 -0.631508,0.765871 -1.666105,0.765871 -0.980852,0 -1.666104,-0.497144 -0.671817,-0.497145 -0.671817,-1.46456 0,-0.470272 0.06718,-0.725562 0.06718,-0.268726 0.120927,-0.497144 -0.618071,0.02687 -1.303324,0.429963 -0.685253,0.403089 -1.209269,1.074906 v 7.376544 q 0,0.470271 0.147799,0.779307 0.1478,0.309035 0.497144,0.483707 0.295599,0.1478 0.95398,0.255291 0.671816,0.09405 0.967415,0.10749 v 0.980852 h -8.988903 v -0.980852 q 0.335908,-0.02687 0.671816,-0.06718 0.349345,-0.05375 0.591199,-0.134364 0.429962,-0.147799 0.591198,-0.456835 0.161236,-0.309035 0.161236,-0.806179 v -7.819943 q 0,-0.483708 -0.228418,-0.859925 -0.228417,-0.389654 -0.550889,-0.618071 -0.241854,-0.161236 -0.618071,-0.268727 -0.362781,-0.10749 -0.80618,-0.147799 v -0.980852 l 6.409129,-0.349345 0.201545,0.201545 v 1.948268 h 0.05375 q 0.927106,-1.074907 1.961704,-1.679541 1.048033,-0.618071 2.176685,-0.618071 1.249578,0 2.002013,0.779307 0.76587,0.76587 0.76587,1.988576 z m 14.645597,-0.873361 q 0.994288,0.927106 1.518305,2.216994 0.524017,1.289887 0.524017,2.794756 0,1.491432 -0.524017,2.821629 -0.51058,1.31676 -1.504869,2.257303 -1.06147,1.007725 -2.539466,1.545178 -1.464559,0.537453 -3.359081,0.537453 -1.639232,0 -3.023174,-0.470272 -1.370506,-0.470271 -2.431976,-1.410814 -1.02116,-0.900234 -1.612359,-2.216994 -0.591198,-1.330197 -0.591198,-2.969429 0,-1.612359 0.51058,-2.861937 0.524017,-1.263015 1.558614,-2.243867 0.994288,-0.940543 2.445412,-1.451124 1.46456,-0.524016 3.265027,-0.524016 1.881086,0 3.305337,0.524016 1.437687,0.510581 2.458848,1.451124 z m -3.4397,9.311375 q 0.295599,-0.752434 0.429963,-1.827341 0.147799,-1.074906 0.147799,-2.499157 0,-0.940543 -0.134363,-2.149812 -0.134363,-1.209269 -0.40309,-1.907959 -0.322472,-0.846488 -0.900234,-1.330196 -0.564326,-0.483708 -1.437687,-0.483708 -0.953979,0 -1.531741,0.524017 -0.564326,0.524017 -0.873362,1.357069 -0.282162,0.765871 -0.389653,1.800468 -0.107491,1.021161 -0.107491,2.136376 0,1.46456 0.09405,2.431975 0.09405,0.95398 0.456835,1.921395 0.309035,0.833053 0.886797,1.31676 0.577762,0.483708 1.46456,0.483708 0.80618,0 1.383942,-0.443399 0.577762,-0.456835 0.91367,-1.330196 z m 23.580757,-4.111516 q 0,2.835065 -1.89452,4.86395 -1.89453,2.028886 -4.79677,2.028886 -1.28989,0 -2.09607,-0.268727 -0.80618,-0.25529 -1.3302,-0.631507 h -0.10749 v 3.775608 q 0,0.470271 0.20155,0.819616 0.21498,0.349344 0.5912,0.51058 0.36278,0.1478 1.02116,0.268727 0.67181,0.120927 1.11521,0.147799 v 0.994289 H 93.946834 V 29.04919 q 0.335908,-0.02687 0.846488,-0.10749 0.510581,-0.06718 0.765871,-0.1478 0.429963,-0.147799 0.577762,-0.51058 0.161236,-0.349345 0.161236,-0.80618 V 13.731777 Q 96.257882,13.288378 96.08321,12.95247 95.921974,12.616562 95.559193,12.361272 95.290466,12.186599 94.847068,12.079109 94.403669,11.958182 93.973706,11.917873 v -0.980852 l 6.543494,-0.349345 0.20154,0.174673 v 1.491432 l 0.10749,0.02687 q 0.8868,-0.900234 1.96171,-1.397379 1.08834,-0.497144 2.14981,-0.497144 2.78132,0 4.39368,1.975141 1.61236,1.961703 1.61236,5.172986 z m -4.82364,0.05374 q 0,-1.007725 -0.1478,-1.921395 -0.1478,-0.927106 -0.52402,-1.652668 -0.36278,-0.725562 -0.96742,-1.155524 -0.59119,-0.429963 -1.45112,-0.429963 -0.87336,0 -1.39738,0.309036 -0.52401,0.295599 -0.91367,0.779307 v 7.618397 q 0.0806,0.268727 0.30904,0.69869 0.22842,0.416526 0.45683,0.671816 0.33591,0.362781 0.76587,0.537453 0.42997,0.174672 0.94055,0.174672 1.33019,0 2.12294,-1.42425 0.80618,-1.437688 0.80618,-4.205571 z m 26.68946,6.489746 h -10.38628 v -1.048033 q 0.72556,-0.05375 1.70641,-0.255291 0.98085,-0.214981 0.98085,-0.524016 0,-0.107491 -0.0269,-0.241854 -0.0134,-0.134363 -0.10749,-0.362781 l -1.6258,-3.95028 h -6.5838 q -0.22842,0.550889 -0.51058,1.289887 -0.26873,0.738998 -0.47027,1.31676 -0.25529,0.752435 -0.30904,1.088343 -0.0403,0.335908 -0.0403,0.470271 0,0.429963 0.64494,0.738998 0.65838,0.295599 2.17668,0.429963 v 1.048033 h -7.81994 v -1.048033 q 0.4434,-0.02687 0.99429,-0.134364 0.56433,-0.120927 0.8868,-0.322471 0.55089,-0.322472 0.9271,-0.792744 0.38966,-0.470271 0.64495,-1.115215 1.55861,-3.775608 3.11723,-7.564652 1.57205,-3.7890449 3.46657,-8.3573963 h 2.68726 q 2.63352,6.4763103 4.12496,10.2384813 1.49143,3.762172 2.53946,6.234456 0.17467,0.40309 0.4434,0.738998 0.26873,0.322472 0.76587,0.618072 0.37622,0.214981 0.87336,0.322471 0.49715,0.107491 0.90024,0.134364 z m -10.01007,-7.712452 -2.76788,-6.9062723 -2.72758,6.9062723 z m 24.44039,-3.157537 q 0,1.021161 -0.63151,1.800468 -0.63151,0.765871 -1.66611,0.765871 -0.98085,0 -1.6661,-0.497144 -0.67182,-0.497145 -0.67182,-1.46456 0,-0.470272 0.0672,-0.725562 0.0672,-0.268726 0.12092,-0.497144 -0.61807,0.02687 -1.30332,0.429963 -0.68525,0.403089 -1.20927,1.074906 v 7.376544 q 0,0.470271 0.1478,0.779307 0.1478,0.309035 0.49714,0.483707 0.2956,0.1478 0.95398,0.255291 0.67182,0.09405 0.96742,0.10749 v 0.980852 h -8.98891 v -0.980852 q 0.33591,-0.02687 0.67182,-0.06718 0.34935,-0.05375 0.5912,-0.134364 0.42996,-0.147799 0.5912,-0.456835 0.16123,-0.309035 0.16123,-0.806179 v -7.819943 q 0,-0.483708 -0.22841,-0.859925 -0.22842,-0.389654 -0.55089,-0.618071 -0.24186,-0.161236 -0.61807,-0.268727 -0.36279,-0.10749 -0.80618,-0.147799 v -0.980852 l 6.40912,-0.349345 0.20155,0.201545 v 1.948268 h 0.0537 q 0.92711,-1.074907 1.96171,-1.679541 1.04803,-0.618071 2.17668,-0.618071 1.24958,0 2.00202,0.779307 0.76587,0.76587 0.76587,1.988576 z m 11.17895,10.251918 q -0.85992,0.376217 -1.84077,0.671817 -0.98086,0.309035 -2.39167,0.309035 -2.09607,0 -3.11723,-1.021161 -1.00772,-1.021161 -1.00772,-2.915683 v -8.249905 h -2.41854 v -1.451124 h 2.47228 V 6.7314502 h 4.36681 v 4.0712068 h 3.76217 v 1.451124 h -3.7353 v 7.363107 q 0,1.572051 0.42996,2.230431 0.4434,0.65838 1.57205,0.65838 0.36279,0 1.00773,-0.05374 0.64494,-0.05375 0.90023,-0.120927 z"
       id="text3"
       style="font-weight:bold;font-size:27.5176px;font-family:Georgia;-inkscape-font-specification:'Georgia, Bold';fill:url(#linearGradient4);stroke:url(#linearGradient9);stroke-width:0.0440828"
       transform="scale(0.9010583,1.1098061)"
       aria-label="PropArt" /></g></svg>
