<?xml version="1.0" encoding="UTF-8"?>
<svg xmlns="http://www.w3.org/2000/svg" xmlns:xlink="http://www.w3.org/1999/xlink" id="svg1" width="1200" height="200" viewBox="0 0 211.66667 35.277777" version="1.1" xml:space="preserve" role="img" aria-labelledby="pwmTitle"><title id="pwmTitle">PropArt™</title><defs
     id="defs1"><linearGradient
       id="linearGradient1"><stop
         style="stop-color:#5d50c6;stop-opacity:1;"
         offset="0"
         id="stop1" /><stop
         style="stop-color:#7a5dcf;stop-opacity:1;"
         offset="0.36533844"
         id="stop7" /><stop
         style="stop-color:#c96b8a;stop-opacity:1;"
         offset="1"
         id="stop2" /></linearGradient><linearGradient
       xlink:href="#linearGradient1"
       id="linearGradient2"
       x1="67.132957"
       y1="-39.668213"
       x2="166.29353"
       y2="6.7035246"
       gradientUnits="userSpaceOnUse"
       gradientTransform="matrix(0.78614912,0,0,0.98145893,9.1014967,-0.07881384)" /></defs><g id="layer1"><path
       d="m 53.993519,10.503978 q 0,1.826136 -0.609473,3.150084 -0.597284,1.30873 -1.657766,2.13049 -1.097052,0.852196 -2.511029,1.232641 -1.401787,0.380445 -3.157069,0.380445 h -1.413977 v 6.071898 q 0,0.547841 0.158463,0.958721 0.170652,0.395662 0.633851,0.639147 0.24379,0.121742 0.792315,0.258702 0.548525,0.13696 0.926399,0.182612 v 1.18699 H 37.78154 v -1.18699 q 0.353494,-0.04564 0.938588,-0.121742 0.585095,-0.09131 0.816694,-0.213049 0.475389,-0.243484 0.621662,-0.593493 0.158463,-0.350009 0.158463,-0.973939 V 8.3734882 q 0,-0.5326227 -0.146273,-0.9130674 Q 40.024401,7.0647582 39.536822,6.8060559 39.195517,6.6234424 38.622613,6.4864823 38.061898,6.3343044 37.78154,6.288651 V 5.1016634 h 9.544345 q 3.352101,0 5.009867,1.3391655 1.657767,1.3239477 1.657767,4.0631491 z m -4.753889,0.776107 q 0,-2.4348453 -0.792314,-3.6066151 Q 47.66719,6.4864823 45.65593,6.4864823 h -1.011725 v 9.4806837 h 0.511957 q 1.999071,0 3.035175,-1.141335 1.048293,-1.156553 1.048293,-3.545746 z m 18.052588,3.10443 q 0,1.156552 -0.572906,2.039184 -0.572904,0.867415 -1.511492,0.867415 -0.88983,0 -1.511493,-0.56306 -0.609473,-0.563058 -0.609473,-1.658738 0,-0.532623 0.06095,-0.82176 0.06095,-0.304357 0.109705,-0.563059 -0.560715,0.03043 -1.182378,0.486969 -0.621662,0.456534 -1.09705,1.217423 v 8.354567 q 0,0.532622 0.134084,0.882632 0.134084,0.350008 0.451009,0.547839 0.268169,0.167396 0.865451,0.289139 0.609474,0.106524 0.877641,0.121742 v 1.1109 h -8.154748 v -1.1109 q 0.304736,-0.03044 0.609473,-0.07609 0.316926,-0.06087 0.536336,-0.152178 0.390062,-0.167395 0.536336,-0.517405 0.146273,-0.350009 0.146273,-0.913067 v -8.856753 q 0,-0.547841 -0.207221,-0.97394 -0.20722,-0.441315 -0.499768,-0.700017 -0.21941,-0.182614 -0.560715,-0.304357 -0.329115,-0.121742 -0.731367,-0.167395 v -1.110899 l 5.814372,-0.395662 0.182842,0.228266 v 2.20658 h 0.04876 q 0.841073,-1.217423 1.779661,-1.902223 0.950777,-0.700019 1.974691,-0.700019 1.133621,0 1.81623,0.882632 0.694799,0.867413 0.694799,2.252232 z m 13.286507,-0.989156 q 0.902021,1.050027 1.377409,2.510936 0.47539,1.460907 0.47539,3.1653 0,1.689174 -0.47539,3.195735 -0.463199,1.491344 -1.365218,2.556589 -0.962968,1.141334 -2.303808,1.750046 -1.328651,0.608711 -3.047365,0.608711 -1.487114,0 -2.742627,-0.532623 -1.243325,-0.532623 -2.206292,-1.597868 -0.926399,-1.019591 -1.462736,-2.510935 -0.536336,-1.50656 -0.536336,-3.363131 0,-1.826135 0.4632,-3.24139 0.475389,-1.430471 1.413977,-2.54137 0.90202,-1.065245 2.218482,-1.643522 1.32865,-0.593494 2.962038,-0.593494 1.706523,0 2.998606,0.593494 1.304272,0.578277 2.23067,1.643522 z m -3.1205,10.545928 q 0.268168,-0.852196 0.390063,-2.069619 0.134083,-1.217424 0.134083,-2.830509 0,-1.065245 -0.121894,-2.434847 -0.121895,-1.3696 -0.365684,-2.160926 -0.292547,-0.958721 -0.816693,-1.506562 -0.511958,-0.547839 -1.304272,-0.547839 -0.865452,0 -1.389598,0.593494 -0.511957,0.593494 -0.792316,1.536996 -0.255977,0.867414 -0.353494,2.039184 -0.09752,1.156552 -0.09752,2.419629 0,1.658739 0.08533,2.75442 0.08533,1.080463 0.414441,2.176143 0.280358,0.943504 0.804504,1.491344 0.524147,0.54784 1.328652,0.54784 0.731367,0 1.255514,-0.502188 0.524146,-0.517404 0.828884,-1.50656 z m 21.392501,-4.656644 q 0,3.210954 -1.71872,5.508841 -1.718712,2.297886 -4.35163,2.297886 -1.170197,0 -1.901554,-0.304357 -0.731372,-0.289137 -1.206763,-0.715235 h -0.09752 v 4.276199 q 0,0.532622 0.182841,0.928285 0.195041,0.395662 0.53634,0.578276 0.329116,0.167395 0.926398,0.304355 0.609473,0.136961 1.011722,0.167396 v 1.126116 h -8.800785 v -1.126116 q 0.304736,-0.03044 0.767935,-0.121742 0.4632,-0.07609 0.6948,-0.167396 0.390063,-0.167395 0.524147,-0.578275 0.146273,-0.395664 0.146273,-0.913068 V 14.978009 Q 85.52764,14.475822 85.369179,14.095377 85.222905,13.714932 84.89379,13.425794 84.65,13.227964 84.247748,13.106221 83.845496,12.969261 83.455434,12.923608 v -1.1109 l 5.936264,-0.395662 0.182841,0.197831 v 1.689175 l 0.09752,0.03044 q 0.804506,-1.019591 1.779662,-1.582649 0.987348,-0.563058 1.950312,-0.563058 2.523218,0 3.985956,2.237014 1.462737,2.221798 1.462737,5.858848 z m -4.376021,0.06087 q 0,-1.141335 -0.134083,-2.176145 -0.134083,-1.050026 -0.475383,-1.871787 -0.329115,-0.821761 -0.877647,-1.30873 -0.536332,-0.48697 -1.316463,-0.48697 -0.792307,0 -1.267705,0.35001 -0.47539,0.334791 -0.828881,0.882632 v 8.628486 q 0.07313,0.304355 0.280358,0.791325 0.207224,0.471752 0.41444,0.76089 0.304733,0.410879 0.694798,0.608711 0.390066,0.197832 0.853265,0.197832 1.206755,0 1.925936,-1.613086 0.731365,-1.628304 0.731365,-4.763168 z m 24.854305,7.350193 h -9.42245 v -1.186989 q 0.65823,-0.06087 1.54807,-0.289138 0.88982,-0.243484 0.88982,-0.593493 0,-0.121743 -0.0243,-0.27392 -0.0122,-0.152179 -0.0975,-0.410881 l -1.47493,-4.47403 h -5.97282 q -0.20723,0.623929 -0.4632,1.460908 -0.2438,0.836978 -0.42664,1.491343 -0.2316,0.852196 -0.28036,1.232642 -0.0366,0.380444 -0.0366,0.532623 0,0.486967 0.5851,0.836978 0.59728,0.334791 1.97469,0.486968 v 1.186989 h -7.094267 v -1.186989 q 0.402257,-0.03043 0.902022,-0.152177 0.511955,-0.136961 0.804505,-0.365228 0.49977,-0.365226 0.84107,-0.897849 0.3535,-0.532623 0.5851,-1.263077 1.41397,-4.276199 2.82795,-8.567615 1.42617,-4.2914166 3.14488,-9.4654652 h 2.43789 q 2.38914,7.3349752 3.74217,11.5959552 1.35303,4.260982 2.3038,7.061055 0.15847,0.456534 0.40226,0.836979 0.24378,0.365226 0.69479,0.700017 0.3413,0.243486 0.79232,0.365228 0.45101,0.121742 0.81669,0.152177 z m -9.08115,-8.73501 -2.51102,-7.821944 -2.47446,7.821944 z m 21.24623,-3.576181 q 0,1.156552 -0.57291,2.039184 -0.5729,0.867415 -1.51149,0.867415 -0.88982,0 -1.51148,-0.56306 -0.60948,-0.563058 -0.60948,-1.658738 0,-0.532623 0.0609,-0.82176 0.0609,-0.304357 0.10971,-0.563059 -0.56072,0.03044 -1.18237,0.486969 -0.62167,0.456534 -1.09706,1.217424 v 8.354566 q 0,0.532622 0.13409,0.882633 0.13408,0.350008 0.451,0.547838 0.26817,0.167396 0.86546,0.289139 0.60947,0.106525 0.87764,0.121742 v 1.1109 h -8.15475 v -1.1109 q 0.30474,-0.03044 0.60947,-0.07609 0.31693,-0.06087 0.53634,-0.152178 0.39006,-0.167395 0.53634,-0.517405 0.14627,-0.350009 0.14627,-0.913067 v -8.856753 q 0,-0.547841 -0.20722,-0.97394 -0.20722,-0.441315 -0.49977,-0.700017 -0.21941,-0.182614 -0.56072,-0.304357 -0.32911,-0.121742 -0.73135,-0.167395 v -1.110898 l 5.81436,-0.395663 0.18284,0.228266 v 2.20658 h 0.0488 q 0.84107,-1.217423 1.77965,-1.902223 0.95078,-0.700019 1.9747,-0.700019 1.13362,0 1.81622,0.882632 0.6948,0.867414 0.6948,2.252232 z m 9.91003,11.611173 q -0.78012,0.426099 -1.66995,0.760891 -0.88983,0.350008 -2.16973,0.350008 -1.90155,0 -2.82796,-1.156552 -0.9142,-1.156551 -0.9142,-3.30226 v -9.343722 h -2.1941 v -1.643522 h 2.24285 V 7.0495404 h 3.96158 v 4.6109906 h 3.41304 v 1.643521 h -3.38866 V 21.6434 q 0,1.780483 0.39006,2.526154 0.40225,0.745671 1.42617,0.745671 0.32911,0 0.9142,-0.06087 0.5851,-0.06087 0.8167,-0.136961 z"
       id="text1"
       style="fill:url(#linearGradient2);fill-opacity:1;stroke:none"
       aria-label="PropArt" /><text
       xml:space="preserve"
       style="font-weight:700;font-size:11.9325px;font-family:Georgia,serif;fill:#c96b8a;fill-opacity:1"
       x="139.03284"
       y="15.139596"
       id="text2"
       transform="scale(1.0114973,0.98863339)"><tspan
         id="tspan1"
         style="font-weight:700;font-size:11.9325px;font-family:Georgia,serif;fill:#c96b8a;fill-opacity:1"
         x="139.03284"
         y="15.139596">™</tspan></text></g></svg>
