<svg xmlns="http://www.w3.org/2000/svg" width="24" height="24" viewBox="0 0 24 24" fill="none" aria-hidden="true">
  <!-- img SVGs ignore page CSS; avoid currentColor (defaults to black). -->
  <path d="M8 7a4 4 0 1 0 8 0a4 4 0 0 0-8 0" stroke="#ffffff" stroke-width="2" stroke-linecap="round" stroke-linejoin="round"/>
  <path d="M6 21v-2a4 4 0 0 1 4-4h.5" stroke="#ffffff" stroke-width="2" stroke-linecap="round" stroke-linejoin="round"/>
  <path fill="#5d50c6" stroke="#ffffff" stroke-width="1.75" stroke-linecap="round" stroke-linejoin="round" d="M17.8 20.817l-2.172 1.138a.392.392 0 0 1-.568-.41l.415-2.411-1.757-1.707a.389.389 0 0 1 .217-.665l2.428-.352 1.086-2.193a.392.392 0 0 1 .702 0l1.086 2.193 2.428.352a.39.39 0 0 1 .217.665l-1.757 1.707.414 2.41a.39.39 0 0 1-.567.411l-2.172-1.138"/>
</svg>
